<?xml version="1.0" encoding="UTF-8"?>
<!-- Generator: Adobe Illustrator 26.0.2, SVG Export Plug-In . SVG Version: 6.00 Build 0) -->
<svg xmlns="http://www.w3.org/2000/svg" xmlns:xlink="http://www.w3.org/1999/xlink" id="Слой_1" x="0px" y="0px" width="150px" height="30px" viewBox="0 0 585.2 114.6" style="enable-background:new 0 0 585.2 114.6;" xml:space="preserve"> <style type="text/css"> .st0{fill-rule:evenodd;clip-rule:evenodd;fill:#424242;} .st1{fill-rule:evenodd;clip-rule:evenodd;fill:#5E5E5E;} .st2{fill:#424242;} .st3{fill:#5E5E5E;} </style> <desc>Created with Sketch.</desc> <g id="sim"> <g id="mir-logo" transform="translate(31.000000, 13.000000)"> <g id="Group-5"> <path id="Combined-Shape" class="st0" d="M370.1,13.1c1.8,0,7.2-0.5,9.5,7.2c1.5,5.2,4,13.7,7.3,25.5l0,0h1.4 c3.6-12.4,6.1-20.9,7.4-25.5c2.3-7.8,8.1-7.2,10.4-7.2l17.8,0v55.3h-18.1V35.8h-1.2l-10.1,32.6h-13.6l-10.1-32.6h-1.2v32.6h-18.1 V13.1L370.1,13.1z M449.9,13.1v32.6h1.4l12.3-26.8c2.4-5.3,7.5-5.8,7.5-5.8l0,0h17.5v55.3h-18.5V35.8h-1.4l-12,26.8 c-2.4,5.3-7.7,5.8-7.7,5.8h-17.5V13.1H449.9z M552.6,39.3c-2.6,7.3-10.7,12.6-19.7,12.6l0,0h-19.4v16.5H496v-29H552.6z"/> <path id="path24" class="st1" d="M533.8,13.1H495c0.9,12.3,11.5,22.9,22.5,22.9h36.3C555.9,25.7,548.7,13.1,533.8,13.1z"/> </g> </g> </g> <g> <path class="st2" d="M76.6,80.5H62.7L71.4,27h13.9L76.6,80.5z M51,27L37.7,63.8l-1.6-7.9l0,0l-4.7-24c0,0-0.6-4.8-6.6-4.8H2.9 l-0.3,0.9c0,0,6.7,1.4,14.6,6.1l12.1,46.4h14.5L66,27L51,27L51,27z M160.5,80.5h12.8L162.1,27h-11.2c-5.2,0-6.4,4-6.4,4l-20.8,49.5 h14.5l2.9-7.9h17.7L160.5,80.5L160.5,80.5z M145.1,61.5l7.3-20l4.1,20H145.1z M124.8,39.9l2-11.5c0,0-6.1-2.3-12.5-2.3 c-6.9,0-23.3,3-23.3,17.7c0,13.8,19.2,14,19.2,21.2s-17.3,6-23,1.4l-2.1,12c0,0,6.2,3,15.7,3c9.5,0,23.8-4.9,23.8-18.3 c0-13.9-19.4-15.2-19.4-21.2C105.3,35.8,118.9,36.6,124.8,39.9L124.8,39.9z"/> </g> <path class="st3" d="M36.2,55.9l-4.7-24c0,0-0.6-4.8-6.6-4.8H2.9l-0.3,0.9c0,0,10.5,2.2,20.7,10.4C33,46.1,36.2,55.9,36.2,55.9z"/> <path class="st2" d="M345,113v0.3h0.3c0.1,0,0.1,0,0.1,0c0,0,0.1-0.1,0.1-0.1c0,0,0-0.1-0.1-0.1c0,0-0.1,0-0.1,0L345,113L345,113z M345.3,112.8c0.1,0,0.2,0,0.3,0.1c0.1,0.1,0.1,0.2,0.1,0.3c0,0.1,0,0.2-0.1,0.2c-0.1,0.1-0.2,0.1-0.3,0.1l0.4,0.4h-0.3l-0.3-0.4 H345v0.4h-0.2v-1.1L345.3,112.8L345.3,112.8z M345.2,114.3c0.1,0,0.2,0,0.4-0.1c0.1,0,0.2-0.1,0.3-0.2c0.1-0.1,0.1-0.2,0.2-0.3 c0.1-0.2,0.1-0.5,0-0.7c0-0.1-0.1-0.2-0.2-0.3c-0.1-0.1-0.2-0.1-0.3-0.2c-0.1,0-0.2-0.1-0.4-0.1c-0.1,0-0.2,0-0.4,0.1 c-0.1,0-0.2,0.1-0.3,0.2c-0.3,0.3-0.3,0.7-0.2,1c0,0.1,0.1,0.2,0.2,0.3c0.1,0.1,0.2,0.1,0.3,0.2C345,114.3,345.1,114.3,345.2,114.3 M345.2,112.2c0.3,0,0.6,0.1,0.8,0.3c0.1,0.1,0.2,0.2,0.3,0.4c0.1,0.3,0.1,0.6,0,0.9c-0.1,0.1-0.1,0.3-0.3,0.4 c-0.1,0.1-0.2,0.2-0.4,0.3c-0.1,0.1-0.3,0.1-0.5,0.1c-0.2,0-0.3,0-0.5-0.1c-0.1-0.1-0.3-0.1-0.4-0.3c-0.1-0.1-0.2-0.2-0.3-0.4 c-0.1-0.3-0.1-0.6,0-0.9c0.1-0.1,0.1-0.3,0.3-0.4c0.1-0.1,0.2-0.2,0.4-0.3C344.9,112.2,345.1,112.2,345.2,112.2 M235.5,108 c0-2.1,1.4-3.8,3.6-3.8c2.1,0,3.5,1.6,3.5,3.8c0,2.1-1.4,3.8-3.5,3.8C236.8,111.8,235.5,110.1,235.5,108 M245,108v-5.9h-2.6v1.4 c-0.8-1.1-2-1.7-3.7-1.7c-3.3,0-5.9,2.6-5.9,6.2c0,3.6,2.6,6.2,5.9,6.2c1.7,0,2.9-0.7,3.7-1.7v1.4h2.6L245,108L245,108z M331.4,108 c0-2.1,1.4-3.8,3.6-3.8c2.1,0,3.5,1.6,3.5,3.8c0,2.1-1.4,3.8-3.5,3.8C332.8,111.8,331.4,110.1,331.4,108 M341,108V97.4h-2.6v6.2 c-0.8-1.1-2-1.7-3.7-1.7c-3.3,0-5.9,2.6-5.9,6.2c0,3.6,2.6,6.2,5.9,6.2c1.7,0,2.9-0.7,3.7-1.7v1.4h2.6V108z M276.8,104.1 c1.6,0,2.7,1,3,2.9h-6.1C273.9,105.3,274.9,104.1,276.8,104.1 M276.8,101.8c-3.4,0-5.9,2.5-5.9,6.2c0,3.7,2.5,6.2,6,6.2 c1.8,0,3.4-0.4,4.8-1.6l-1.3-1.9c-1,0.8-2.2,1.2-3.4,1.2c-1.6,0-3.1-0.8-3.5-2.9h8.7c0-0.3,0.1-0.6,0.1-1 C282.4,104.4,280.1,101.8,276.8,101.8 M307.7,108c0-2.1,1.4-3.8,3.6-3.8c2.1,0,3.5,1.6,3.5,3.8c0,2.1-1.4,3.8-3.5,3.8 C309,111.8,307.7,110.1,307.7,108 M317.2,108v-5.9h-2.6v1.4c-0.8-1.1-2-1.7-3.7-1.7c-3.3,0-5.9,2.6-5.9,6.2c0,3.6,2.6,6.2,5.9,6.2 c1.7,0,2.9-0.7,3.7-1.7v1.4h2.6L317.2,108L317.2,108z M293.2,108c0,3.6,2.5,6.2,6.3,6.2c1.8,0,3-0.4,4.2-1.4l-1.2-2.1 c-1,0.7-2,1.1-3.1,1.1c-2,0-3.5-1.5-3.5-3.8s1.5-3.7,3.5-3.8c1.1,0,2.1,0.4,3.1,1.1l1.2-2.1c-1.3-1-2.5-1.4-4.2-1.4 C295.7,101.8,293.2,104.5,293.2,108 M326.2,101.8c-1.5,0-2.4,0.7-3.1,1.7v-1.4h-2.5v11.8h2.6v-6.6c0-1.9,0.8-3,2.5-3 c0.5,0,1.1,0.1,1.6,0.3l0.8-2.4C327.5,101.9,326.7,101.8,326.2,101.8 M257.7,103.1c-1.2-0.8-2.9-1.2-4.8-1.2c-3,0-4.9,1.4-4.9,3.8 c0,1.9,1.4,3.1,4.1,3.5l1.2,0.2c1.4,0.2,2.1,0.6,2.1,1.2c0,0.9-0.9,1.4-2.7,1.4c-1.8,0-3.1-0.6-3.9-1.2l-1.2,2 c1.4,1,3.2,1.5,5.1,1.5c3.4,0,5.4-1.6,5.4-3.8c0-2.1-1.5-3.1-4.1-3.5l-1.2-0.2c-1.1-0.1-2-0.4-2-1.2c0-0.9,0.8-1.4,2.2-1.4 c1.5,0,3,0.6,3.7,1L257.7,103.1L257.7,103.1z M290.7,101.8c-1.5,0-2.4,0.7-3.1,1.7v-1.4H285v11.8h2.6v-6.6c0-1.9,0.8-3,2.5-3 c0.5,0,1.1,0.1,1.6,0.3l0.8-2.4C291.9,101.9,291.2,101.8,290.7,101.8 M268.8,102.1h-4.2v-3.6h-2.6v3.6h-2.4v2.3h2.4v5.4 c0,2.7,1.1,4.4,4.1,4.4c1.1,0,2.4-0.3,3.2-0.9l-0.7-2.2c-0.8,0.4-1.6,0.7-2.3,0.7c-1.3,0-1.7-0.8-1.7-2v-5.3h4.2L268.8,102.1z M230.6,113.9v-7.4c0-2.8-1.8-4.7-4.6-4.7c-1.5,0-3.1,0.4-4.1,2.1c-0.8-1.3-2.1-2.1-3.9-2.1c-1.3,0-2.5,0.4-3.4,1.7v-1.5h-2.6v11.8 h2.6v-6.5c0-2,1.1-3.1,2.9-3.1c1.7,0,2.6,1.1,2.6,3.1v6.5h2.6v-6.5c0-2,1.2-3.1,2.9-3.1c1.7,0,2.6,1.1,2.6,3.1v6.5L230.6,113.9z"/> <path class="st2" d="M346.5,74.8v-1.7H346l-0.5,1.2l-0.5-1.2h-0.4v1.7h0.3v-1.3l0.5,1.1h0.3l0.5-1.1v1.3H346.5L346.5,74.8z M343.7,74.8v-1.4h0.6v-0.3h-1.5v0.3h0.6v1.4L343.7,74.8L343.7,74.8z"/> <path class="st3" d="M298.6,79.1h-38.8V9.5h38.8L298.6,79.1z"/> <path class="st2" d="M262.3,44.3c0-14.1,6.6-26.7,16.9-34.8C271.4,3.3,261.8,0,251.8,0c-24.5,0-44.3,19.8-44.3,44.3 s19.8,44.3,44.3,44.3c9.9,0,19.6-3.3,27.4-9.5C268.9,71,262.3,58.4,262.3,44.3"/> <path class="st2" d="M350.9,44.3c0,24.5-19.8,44.3-44.3,44.3c-9.9,0-19.6-3.3-27.4-9.5c10.3-8.1,16.9-20.7,16.9-34.8 s-6.6-26.7-16.9-34.8C287,3.3,296.7,0,306.6,0C331.1,0,350.9,19.8,350.9,44.3"/> </svg>