<svg xmlns="http://www.w3.org/2000/svg" xmlns:xlink="http://www.w3.org/1999/xlink" id="katman_1" width="160px" height="30px" x="0px" y="0px" viewBox="0 0 444 82.1" style="enable-background:new 0 0 444 82.1;" xml:space="preserve"> <style type="text/css"> .st0{fill:#FED42B;} .st1{fill:#FC3F1D;} .st2{fill:#FFFFFF;} .st3{clip-path:url(#SVGID_00000168838852565249720180000012387644782665739708_);} </style> <path d="M208.6,69.5h8.8l12.3-45.7v45.7h9.9V9.1H226l-12.3,44.3L201.4,9.1h-13.9v60.4h8.5V23.8L208.6,69.5z M281,39.6 c0-10.7-5.3-14.7-16.3-14.7c-6.9,0-12.3,2.1-15.5,4v8.5c2.7-2.1,8.8-4.3,14.2-4.3c5.1,0,7.2,1.9,7.2,6.4v2.4H269 c-15.8,0-23,5.3-23,14.2S251.3,70,259.4,70c6.1,0,8.8-1.9,10.7-4h0.5c0,1.1,0.5,2.7,0.8,3.5h10.2c-0.3-3.5-0.5-7.2-0.5-10.7 C281,58.8,281,39.6,281,39.6z M270.6,59.1c-1.3,1.9-3.7,3.5-7.5,3.5c-4.3,0-6.4-2.7-6.4-6.4c0-5.1,3.5-6.9,12.6-6.9h1.6v9.9h-0.3 V59.1z M298.9,25.7h-9.6v56.4h10.4V64.5c2.7,4,6.4,5.9,11,5.9c10.2,0,17.1-8,17.1-22.7S321.1,25,311.2,25c-4.8,0-8.8,2.1-11.8,6.4 C299.5,31.3,298.9,25.7,298.9,25.7z M307.8,62.3c-5.3,0-8.3-4.5-8.3-14.4c0-10.2,2.9-14.7,8.8-14.7c5.6,0,8.5,4.5,8.5,14.4 C316.8,57.8,313.9,62.3,307.8,62.3z M360.1,69.5h11.8L355.3,46L370,25.7h-10.4L344.9,46V25.7h-10.4v43.8h10.4V48.1L360.1,69.5z M406.6,66.6v-8.5c-3.2,2.1-8.5,4-13.6,4c-7.5,0-10.4-3.5-11-11h24.8v-5.6c0-15.2-6.7-20.8-17.1-20.8c-12.6,0-18.7,9.6-18.7,23 c0,15.2,7.5,22.7,20.6,22.7C398.9,70.3,403.7,68.7,406.6,66.6z M389.8,33.2c5.1,0,6.7,4.3,6.7,9.6v0.8H382 C382.3,36.7,385,33.2,389.8,33.2z M444,34v-8.3h-34.7V34h12.3v35.5H432V34H444z"></path> <path class="st0" d="M125.8,80.2c22.2,0,40.1-17.9,40.1-40.1S148,0,125.8,0S85.7,17.9,85.7,40.1C85.5,62.3,103.7,80.2,125.8,80.2z"></path> <circle class="st1" cx="40.1" cy="40.1" r="40.1"></circle> <path class="st2" d="M45.9,22.5h-4c-6.9,0-10.4,3.5-10.4,8.8c0,5.9,2.4,8.8,7.5,12.3l4,2.9L31.5,64.4h-9.4l11-16.3 c-6.4-4.5-9.9-8.8-9.9-16.3c0-9.4,6.4-15.8,18.7-15.8h12.3v48.1h-8V22.4h-0.3V22.5z"></path> <g> <g> <defs> <path id="SVGID_1_" d="M125.8,80.2c22.2,0,40.1-17.9,40.1-40.1S148,0,125.8,0S85.7,17.9,85.7,40.1 C85.5,62.3,103.7,80.2,125.8,80.2z"></path> </defs> <clipPath id="SVGID_00000176740401762417594170000017690450135678572680_"> <use xlink:href="#SVGID_1_" style="overflow:visible;"></use> </clipPath> <path style="clip-path:url(#SVGID_00000176740401762417594170000017690450135678572680_);" d="M106.1,22L70.8,68.2l9.4,10.7 l26.2-34.7l-2.7,19l14.7,5.1l17.9-28.6c-0.8,5.3-2.1,17.6,9.6,21.4c18.4,5.6,34.5-27.5,41.9-44.3l-10.7-5.6 c-8.3,17.4-21.1,36.6-26.2,35.3s-0.5-17.6,2.4-28.1v-0.3L137,12.5l-19.5,31.8l2.7-17.4L106.1,22z"></path> </g> </g> </svg> 