<svg xmlns="http://www.w3.org/2000/svg" xmlns:xlink="http://www.w3.org/1999/xlink" id="Слой_1" x="0px" y="0px" width="60px" height="25px" viewBox="0 0 146.3 59.9" style="enable-background:new 0 0 146.3 59.9;" xml:space="preserve"> <style type="text/css"> .st0{fill:#5E5E5E;} .st1{fill:#424242;} </style> <desc>Created with Sketch.</desc> <g> <path class="st0" d="M71.4,11.9c5,0,6.3-0.2,13.3,0c6,0.1,9.5,6.1,9.4,12.1C94,30,90.6,34,84.8,34.9c-2.3,0.4-4.6,0.4-7.1,0.5 c0,2,0,4.1,0,6.1c0,2.1,0,4.2,0,6.4c-2.1,0-4.1,0-6.2,0C71.4,36.1,71.4,24.2,71.4,11.9z M77.8,17.2c0,4.5,0,8.9,0,13.3 c3.3-0.1,6.8,0.5,8.9-2.8c1.6-2.6,1.6-5.6,0-8.1C84.5,16.3,81,17.3,77.8,17.2z"/> </g> <path class="st1" d="M29.9,0C13.4,0,0,13.4,0,29.9c0,16.5,13.4,29.9,29.9,29.9s29.9-13.4,29.9-29.9C59.9,13.4,46.5,0,29.9,0z M34.3,48.5V16.9h-2.8c-5.2,0-7.9,2.6-7.9,6.5c0,4.4,1.9,6.5,5.8,9.1l3.2,2.2l-9.2,13.8h-6.9l8.3-12.4c-4.8-3.4-7.5-6.7-7.5-12.4 c0-7,4.9-11.8,14.2-11.8h9.2v36.5H34.3z"/> <path class="st0" d="M111.6,11.9h-8l-9.7,36h5.7l2-7.8h10.7l2,7.8h6.8L111.6,11.9z M102.7,35.3l4.5-16.6l4.7,16.6H102.7z"/> <polygon class="st0" points="118.7,11.9 125.6,11.9 132.9,27 140.5,11.9 146.3,11.9 135.7,32.4 135.7,47.9 129.4,47.9 129.4,32.6 "/> </svg>