<?xml version="1.0" encoding="UTF-8"?>
<!-- Generator: Adobe Illustrator 26.0.2, SVG Export Plug-In . SVG Version: 6.00 Build 0) -->
<svg xmlns="http://www.w3.org/2000/svg" xmlns:xlink="http://www.w3.org/1999/xlink" id="Слой_1" x="0px" y="0px" viewBox="0 0 2500 2500" style="enable-background:new 0 0 2500 2500;" xml:space="preserve"> <style type="text/css"> .st0{fill:#424242;} .st1{fill:#FFFFFF;} </style> <path class="st0" d="M1250,2500c690.4,0,1250-559.6,1250-1250S1940.4,0,1250,0S0,559.6,0,1250S559.6,2500,1250,2500z"/> <path class="st1" d="M520.2,1239.2c0,0,625-256.5,841.8-346.8c83.1-36.1,364.9-151.7,364.9-151.7s130.1-50.6,119.2,72.3 c-3.6,50.6-32.5,227.6-61.4,419.1c-43.4,271-90.3,567.2-90.3,567.2s-7.2,83.1-68.6,97.5s-162.6-50.6-180.6-65 c-14.5-10.8-271-173.4-364.9-252.9c-25.3-21.7-54.2-65,3.6-115.6c130.1-119.2,285.4-267.3,379.3-361.3 c43.4-43.4,86.7-144.5-93.9-21.7c-256.5,177-509.4,343.2-509.4,343.2s-57.8,36.1-166.2,3.6c-108.4-32.5-234.8-75.9-234.8-75.9 S372.1,1297,520.2,1239.2L520.2,1239.2z"/> </svg>