<?xml version="1.0" encoding="UTF-8"?>
<!-- Generator: Adobe Illustrator 26.0.2, SVG Export Plug-In . SVG Version: 6.00 Build 0) -->
<svg xmlns="http://www.w3.org/2000/svg" xmlns:xlink="http://www.w3.org/1999/xlink" id="Слой_1" x="0px" y="0px" viewBox="0 0 143 64" style="enable-background:new 0 0 143 64;" xml:space="preserve"> <style type="text/css"> .st0{fill:#424242;} .st1{fill-rule:evenodd;clip-rule:evenodd;fill:#FFFFFF;} .st2{fill:#FFFFFF;} </style> <path class="st0" d="M16,0h111c8.8,0,16,7.2,16,16v32c0,8.8-7.2,16-16,16H16C7.2,64,0,56.8,0,48V16C0,7.2,7.2,0,16,0z"/> <path class="st1" d="M35,16c-0.1,6.3-0.5,9.8-2.9,12.2C29.8,30.5,26.3,31,20,31V32c6.3,0.1,9.8,0.5,12.2,2.9 c2.4,2.4,2.8,5.9,2.9,12.2H36c0.1-6.3,0.5-9.8,2.9-12.2S44.7,32,51,32V31c-6.3-0.1-9.8-0.5-12.2-2.9C36.5,25.8,36,22.3,36,16H35z"/> <path class="st2" d="M61.7,48v-4.9h12.5V48h3.8v-8h-2.2V19.8H61.5l-0.4,11.6c-0.1,3.8-0.5,6.8-1.6,8.6h-1.6v8H61.7z M64.6,31.9 l0.3-9h6.7v17h-8.4C64,38.4,64.5,35.7,64.6,31.9z"/> <path class="st2" d="M84.7,40.3c-2,0-4.1-0.7-5.1-1.5V42c0.8,0.6,2.7,1.4,5.6,1.4c4.3,0,6.5-1.9,6.5-5.3c0-2-1.2-3.3-3.5-3.8 c2.1-0.7,3-2.1,3-4c0-2.9-2.2-4.4-5.9-4.4c-2.6,0-4.3,0.8-5.3,1.4v3.3c1.1-0.7,2.6-1.5,4.7-1.5c1.5,0,2.4,0.7,2.4,1.9 c0,1.3-0.8,2-2.4,2h-2.5v3h2.5c2,0,2.9,0.6,2.9,2.1C87.6,39.5,86.6,40.3,84.7,40.3z"/> <path class="st2" d="M106.8,42v-3.3c-1.2,0.8-3.3,1.6-5.3,1.6c-2.9,0-4-1.4-4.2-4.2h9.6V34c0-5.9-2.6-8.1-6.6-8.1 c-4.9,0-7.2,3.7-7.2,8.8c0,5.9,2.9,8.7,8,8.7C103.8,43.5,105.7,42.8,106.8,42z M100.4,29.1c2,0,2.6,1.6,2.6,3.8v0.3h-5.6 C97.5,30.5,98.4,29.1,100.4,29.1z"/> <path class="st2" d="M119,26.2v6.7h-5.3v-6.7h-4v16.9h4v-7.1h5.3v7.1h4V26.2H119z"/> </svg>